<?xml version="1.0" encoding="UTF-8"?>
<svg xmlns="http://www.w3.org/2000/svg" xmlns:xlink="http://www.w3.org/1999/xlink" viewBox="0 0 50 50" width="50px" height="50px">
<g id="surface58131629">
<path style=" stroke:none;fill-rule:nonzero;fill:rgb(100%,100%,100%);fill-opacity:1;" d="M 24.503906 4.007812 C 23.980469 4.007812 23.453125 4.113281 22.964844 4.316406 L 4.222656 11.648438 C 3.480469 11.960938 3 12.683594 3 13.488281 C 3 14.292969 3.476562 15.019531 4.242188 15.34375 L 23.234375 22.777344 C 23.609375 22.933594 24.015625 23.015625 24.414062 23.015625 C 24.804688 23.015625 25.1875 22.9375 25.539062 22.789062 L 45.769531 15.332031 C 46.519531 15.019531 47 14.292969 47 13.484375 C 47 12.671875 46.515625 11.949219 45.746094 11.632812 L 26.046875 4.316406 C 25.558594 4.109375 25.03125 4.007812 24.503906 4.007812 Z M 1.996094 17.003906 C 0.941406 17.003906 0 17.855469 0 19.003906 L 0 34.972656 C 0 36.128906 0.953125 36.976562 2.003906 36.976562 C 2.296875 36.976562 2.601562 36.90625 2.894531 36.761719 L 20.878906 27.835938 C 22.410156 27.070312 22.332031 24.859375 20.753906 24.199219 L 2.769531 17.15625 C 2.515625 17.050781 2.253906 17.003906 1.996094 17.003906 Z M 48.003906 17.003906 C 47.761719 17.003906 47.515625 17.046875 47.273438 17.140625 L 28.273438 24.503906 C 27.503906 24.808594 27 25.542969 27 26.367188 L 27 42.996094 C 27 44.144531 27.941406 45 29 45 C 29.238281 45 29.484375 44.957031 29.730469 44.859375 L 48.730469 37.425781 C 49.496094 37.125 50 36.386719 50 35.5625 L 50 19.003906 C 50 17.855469 49.058594 17 48.003906 17 Z M 48.003906 17.003906 "/>
</g>
</svg>
